<?xml version="1.0" encoding="UTF-8"?>
<svg xmlns="http://www.w3.org/2000/svg" viewBox="0 0 880 154" width="142" height="24">
  <path fill="#009d00" d="M110.87 1.9l12.29 16.95-82.18 113.34h24.58l69.89-96.39 12.29 16.95-72.03 99.35H1.97L110.87 1.9zm-10.58 150.2h73.74l14.43-19.89 8.45-11.65-12.29-16.95-20.74 28.6H139.3l33.03-45.56-12.29-16.95-59.74 82.4z"></path>
  <g fill="#313131">
    <path d="M827.1 47.01c-10.3 0-17.02 2.54-24.64 6.72-3.44-4.18-8.96-6.72-17.47-6.72s-15.08 3.14-21.35 7.17v-6.12h-18.97v84.22h19.71V68.82c6.12-3.29 10.6-4.93 13.74-4.93 8.36 0 10.3 2.99 10.3 14.49v53.9h19.71v-53.9c0-3.73-.15-7.47-.6-10.75 5.38-2.84 11.05-3.73 13.89-3.73 8.36 0 10.75 2.99 10.75 14.49v53.9h19.71v-53.9c0-17.47-4.48-31.36-24.79-31.36M542.14 94.57c0 12.24-3.14 21.35-15.98 21.35h-14.34V64.18c4.18-.6 10.75-1.05 14.34-1.05 12.84 0 15.98 9.11 15.98 21.35v10.08zm-15.98-47.56c-3.58 0-8.81.3-14.34 1.04V18.64h-19.71v113.41h34.04c24.04 0 35.69-14.19 35.69-37.48V84.49c0-23.3-11.65-37.48-35.69-37.48M284.9 83h-31.66v-.6c0-11.8 6.72-18.37 15.98-18.37s15.68 6.72 15.68 18.37v.6zm-15.68-35.99c-22.85 0-35.84 14.64-35.84 37.93v11.05c0 29.42 21.2 37.48 36.14 37.48 11.02 0 16.92-.5 24.04-1.67h.08c1.54-.26 3.13-.55 4.85-.86.06 0 .1-.02.15-.03l2.96-.53v-2.64c0-.22.02-.44.02-.69v-9.86c0-.07-.01-.13-.02-.19v-2.32l-3.06.27h-.05c-.28.03-.57.05-.86.08l-4.69.42c-6.03.5-13.81 1-21.92 1-14.34 0-17.92-10.3-17.92-18.97v-.45h51.66v-12.1c0-22.25-12.54-37.93-35.54-37.93M627.25 83h-31.66v-.6c0-11.8 6.72-18.37 15.98-18.37s15.68 6.72 15.68 18.37v.6zm-15.68-35.99c-22.85 0-35.84 14.64-35.84 37.93v11.05c0 29.42 21.2 37.48 36.14 37.48 11.02 0 16.92-.5 24.04-1.67h.08c1.54-.26 3.13-.55 4.85-.86.06 0 .1-.02.15-.03l2.96-.53v-2.64c0-.22.02-.44.02-.69v-9.86c0-.07-.01-.13-.02-.19v-2.32l-3.06.27h-.05c-.28.03-.57.05-.86.08l-4.69.42c-6.04.5-13.81 1-21.92 1-14.34 0-17.92-10.3-17.92-18.97v-.45h51.66v-12.1c0-22.25-12.54-37.93-35.54-37.93M451.5 113.61c-4.33 2.39-9.86 4.18-15.23 4.18-7.47 0-10.75-1.94-10.75-9.26v-.6c0-8.36 2.99-12.69 16.58-12.69h9.41v18.37zm-13.14-66.6c-9.08 0-16.88.93-22.69 1.97s-.91.17-.91.17c-.46.08-.9.17-1.33.25-.01 0-.03.01-.04.01l-2.76.54v2.17c-.01.14-.03.27-.03.42v9.56c0 .14.02.26.03.39v2.48l5.05-.48v-.04c5.28-.53 14.1-1.02 22.69-1.02s13.14 2.39 13.14 12.1v6.57h-9.41c-25.98 0-36.43 8.81-36.43 25.83v.6c0 20.16 13.44 24.94 25.83 24.94 7.17 0 14.18-2.39 21.05-6.57v5.38h18.66V75.54c0-19.11-11.65-28.52-32.85-28.52M706.07 113.61c-4.33 2.39-9.86 4.18-15.23 4.18-7.47 0-10.75-1.94-10.75-9.26v-.6c0-8.36 2.99-12.69 16.58-12.69h9.41v18.37zm-13.14-66.6c-9.08 0-16.88.93-22.69 1.97s-.91.17-.91.17c-.46.08-.9.17-1.33.25-.01 0-.03.01-.04.01l-2.76.54v2.17c-.01.14-.03.27-.03.42v9.56c0 .14.02.26.03.39v2.48l5.05-.48v-.04c5.28-.53 14.1-1.02 22.69-1.02s13.14 2.39 13.14 12.1v6.57h-9.41c-25.98 0-36.44 8.81-36.44 25.83v.6c0 20.16 13.44 24.94 25.83 24.94 7.17 0 14.19-2.39 21.05-6.57v5.38h18.67V75.54c0-19.11-11.65-28.52-32.85-28.52M375.19 48.06l-20.41 28.06-20.41-28.06h-20.44l30.63 42.11-30.63 42.11h20.44l20.41-28.06 20.41 28.06h20.43L365 90.17l30.62-42.11h-20.43z"></path>
  </g>
  <path fill="#313131" d="M860.71 67.14c-1.99-1.95-2.99-4.35-2.99-7.2s1-5.2 3-7.13 4.39-2.9 7.18-2.9 5.15.97 7.14 2.91 2.99 4.31 2.99 7.11-.99 5.26-2.97 7.2-4.37 2.92-7.15 2.92-5.2-.97-7.19-2.92zm12.66-1.49c1.5-1.53 2.25-3.44 2.25-5.71s-.75-4.09-2.26-5.62c-1.51-1.52-3.33-2.29-5.46-2.29s-4.01.76-5.51 2.29c-1.51 1.53-2.26 3.4-2.26 5.62s.75 4.18 2.26 5.71 3.34 2.3 5.51 2.3 3.98-.77 5.47-2.3zm-2.14-3.81c-.07-.19-.12-.32-.15-.37-.03-.05-.08-.15-.16-.29-.08-.14-.15-.24-.21-.3s-.15-.13-.25-.21c-.11-.08-.23-.15-.37-.2.49-.12.91-.41 1.24-.87.33-.46.5-1.05.5-1.77 0-.85-.33-1.51-.99-1.98s-1.54-.71-2.63-.71h-3.94v9.44h2.46v-3.25h.84c.72.03 1.2.44 1.43 1.22.35 1.13.67 1.81.95 2.04h2.35v-.11c-.19-.3-.51-1.05-.95-2.25-.02-.05-.06-.17-.13-.37zm-4.49-2.46v-2.19h1.35c.92 0 1.37.34 1.37 1.03 0 .34-.13.61-.4.83-.26.22-.61.33-1.03.33h-1.3z"></path>
</svg>
