<?xml version="1.0" ?><svg height="467.38" id="svg26" version="1.1" viewBox="0 0 467.39999 467.38" width="467.39999" xml:space="preserve" xmlns="http://www.w3.org/2000/svg" xmlns:cc="http://creativecommons.org/ns#" xmlns:dc="http://purl.org/dc/elements/1.1/" xmlns:inkscape="http://www.inkscape.org/namespaces/inkscape" xmlns:rdf="http://www.w3.org/1999/02/22-rdf-syntax-ns#" xmlns:sodipodi="http://sodipodi.sourceforge.net/DTD/sodipodi-0.dtd" xmlns:svg="http://www.w3.org/2000/svg"><defs id="defs30"/><g id="window_screen__coding_icon" transform="translate(-22.299,-22.31)"><g id="g22"><path d="m 255.999,22.31 c 129.123,0 233.7,104.911 233.7,233.69 0,129.113 -104.577,233.69 -233.7,233.69 -129.118,0 -233.7,-104.577 -233.7,-233.69 0,-128.779 104.582,-233.69 233.7,-233.69 z" id="path4" style="clip-rule:evenodd;fill:#ffd05b;fill-rule:evenodd"/><path d="m 486.664,219.353 c 2.028,11.758 3.035,24.202 3.035,36.647 0,122.395 -93.822,222.601 -213.187,233.022 L 124.194,372.001 c 0,-5.373 4.032,-7.721 4.032,-12.77 v 0 c 0,-57.833 0,-115.676 0,-173.519 0,-9.057 0,-17.808 0,-26.541 0,-5.392 0,-10.774 0,-15.813 5.044,0 10.426,0 15.804,0 76.997,0 154.342,0 231.677,0 l 11.768,-3.025 c 5.039,7.74 99.189,79.02 99.189,79.02 z" id="path6" style="clip-rule:evenodd;fill:#e6bb52;fill-rule:evenodd"/><path d="m 139.999,182.706 h 231.667 v 173.5 H 139.999 Z m 247.476,173.5 v 15.795 H 371.666 139.999 124.195 v -15.795 0 -173.5 -26.569 -15.804 h 15.804 231.667 15.809 v 15.804 26.569 z" id="path8" style="clip-rule:evenodd;fill:#4b4b55;fill-rule:evenodd"/><path d="m 321.901,161.501 c 0,5.735 4.715,10.431 10.431,10.431 5.717,0 10.422,-4.695 10.422,-10.431 0,-6.041 -4.705,-10.736 -10.422,-10.736 -5.716,0 -10.431,4.695 -10.431,10.736 z" id="path10" style="clip-rule:evenodd;fill:#90dfaa;fill-rule:evenodd"/><path d="m 350.827,161.501 c 0,5.735 4.71,10.431 10.417,10.431 5.712,0 10.422,-4.695 10.422,-10.431 0,-6.041 -4.71,-10.736 -10.422,-10.736 -5.707,0 -10.417,4.695 -10.417,10.736 z" id="path12" style="clip-rule:evenodd;fill:#ffd05b;fill-rule:evenodd"/><path d="m 292.994,161.501 c 0,5.735 4.7,10.431 10.417,10.431 5.721,0 10.426,-4.695 10.426,-10.431 0,-6.041 -4.705,-10.736 -10.426,-10.736 -5.717,0 -10.417,4.695 -10.417,10.736 z" id="path14" style="clip-rule:evenodd;fill:#fd8469;fill-rule:evenodd"/><rect height="173.5" id="rect16" style="clip-rule:evenodd;fill:#ffffff;fill-rule:evenodd" width="231.66701" x="139.99899" y="182.70599"/><path d="m 306.775,248.27 v 0 c -11.429,-27.914 -43.705,-41.361 -71.963,-29.594 -27.905,11.433 -41.347,43.709 -29.584,71.967 5.373,13.447 16.133,23.868 29.584,29.585 6.728,3.025 14.125,4.38 21.187,4.38 7.071,0 14.129,-1.354 21.182,-4.38 27.915,-11.433 41.361,-43.709 29.594,-71.958 z" id="path18" style="clip-rule:evenodd;fill:#84dbff;fill-rule:evenodd"/><path d="m 263.4,252.307 -8.747,35.645 c -0.334,1.336 -0.334,2.014 -0.673,2.691 -0.339,1.002 -0.668,1.346 -1.002,1.67 -0.344,0.334 -1.017,0.678 -2.019,0.678 -2.023,0 -3.035,-1.002 -3.035,-2.682 0,-0.678 0.343,-1.68 0.678,-3.703 l 8.408,-35.645 c 0.673,-2.014 1.007,-3.359 1.341,-4.037 0.678,-0.668 1.346,-1.012 2.696,-1.012 1.011,0 1.68,0.343 2.353,0.678 0.338,0.668 0.672,1.336 0.672,2.014 0,0.668 -0.334,2.014 -0.672,3.703 z m -19.168,25.891 v 8.741 l -31.274,-13.456 v -7.387 l 31.274,-13.79 v 9.086 l -21.854,8.389 z m 54.803,-4.715 -31.265,13.456 v -8.741 l 21.854,-8.417 -21.854,-8.389 v -8.752 l 31.265,13.456 z" id="path20" style="clip-rule:evenodd;fill:#324a5e;fill-rule:evenodd"/></g></g><g id="Layer_1" transform="translate(-22.299,-22.31)"/></svg>